<?xml version="1.0" encoding="UTF-8" standalone="no"?>
<!-- Created with Inkscape (http://www.inkscape.org/) -->

<svg
   xmlns:dc="http://purl.org/dc/elements/1.1/"
   xmlns:cc="http://creativecommons.org/ns#"
   xmlns:rdf="http://www.w3.org/1999/02/22-rdf-syntax-ns#"
   xmlns:svg="http://www.w3.org/2000/svg"
   xmlns="http://www.w3.org/2000/svg"
   xmlns:sodipodi="http://sodipodi.sourceforge.net/DTD/sodipodi-0.dtd"
   xmlns:inkscape="http://www.inkscape.org/namespaces/inkscape"
   width="87.625595mm"
   height="111.42596mm"
   viewBox="0 0 310.48439 394.81641"
   id="svg4812"
   version="1.1"
   inkscape:version="0.91 r13725"
   sodipodi:docname="Alphabet19A.svg">
  <defs
     id="defs4814">
    <linearGradient
       x1="0"
       y1="0"
       x2="1"
       y2="0"
       gradientUnits="userSpaceOnUse"
       gradientTransform="matrix(-1.775e-5,407.5,-407.5,-1.775e-5,360.00096,272.82725)"
       spreadMethod="pad"
       id="linearGradient424">
      <stop
         style="stop-opacity:1;stop-color:#fdc82c"
         offset="0"
         id="stop426" />
      <stop
         style="stop-opacity:1;stop-color:#fdc82c"
         offset="0.239968"
         id="stop428" />
      <stop
         style="stop-opacity:1;stop-color:#236f46"
         offset="1"
         id="stop430" />
    </linearGradient>
  </defs>
  <sodipodi:namedview
     id="base"
     pagecolor="#ffffff"
     bordercolor="#666666"
     borderopacity="1.0"
     inkscape:pageopacity="0.0"
     inkscape:pageshadow="2"
     inkscape:zoom="1.3423962"
     inkscape:cx="155.24219"
     inkscape:cy="197.40819"
     inkscape:document-units="px"
     inkscape:current-layer="layer1"
     showgrid="false"
     fit-margin-top="0"
     fit-margin-left="0"
     fit-margin-right="0"
     fit-margin-bottom="0"
     inkscape:window-width="1366"
     inkscape:window-height="705"
     inkscape:window-x="-8"
     inkscape:window-y="-8"
     inkscape:window-maximized="1" />
  <metadata
     id="metadata4817">
    <rdf:RDF>
      <cc:Work
         rdf:about="">
        <dc:format>image/svg+xml</dc:format>
        <dc:type
           rdf:resource="http://purl.org/dc/dcmitype/StillImage" />
        <dc:title></dc:title>
      </cc:Work>
    </rdf:RDF>
  </metadata>
  <g
     inkscape:label="Layer 1"
     inkscape:groupmode="layer"
     id="layer1"
     transform="translate(-204.75776,-277.81115)">
    <path
       style="fill:url(#linearGradient424);stroke:none"
       d="m 389.50396,277.81115 c -20.465,0 -40.9292,7.35077 -61.3868,22.05077 -18.08,13.1125 -33.8674,30.29828 -47.375,51.55078 -10.9274,17.8775 -19.025,35.8586 -24.285,53.9336 -5.2676,18.08 -7.8946,36.55327 -7.8946,55.42577 0,16.68501 2.2356,32.67376 6.7032,47.96876 4.4674,15.3 8.982,30.59562 13.5546,45.89064 4.5674,15.29998 6.8554,30.39296 6.8554,45.29296 0,20.065 -2.335,34.17 -7,42.3125 -4.67,8.1475 -11.6752,12.21484 -21.0078,12.21484 -10.73,0 -18.7766,-5.46312 -24.1366,-16.39062 -6.1626,-12.71 -9.2384,-31.88282 -9.2384,-57.50782 0,-11.125 1.1398,-21.40484 3.4298,-30.83984 2.28,-9.4325 6.003,-18.21968 11.168,-26.36718 0.196,-0.3975 3.9742,-4.86766 11.3242,-13.41016 3.1774,-3.7725 4.8664,-6.36 5.0664,-7.75 l -2.086,-5.95704 c -6.555,4.5725 -11.9682,9.23642 -16.2382,14.00392 -4.275,4.7675 -8.3998,10.82828 -12.3672,18.17578 -2.98,7.35 -5.3636,15.79312 -7.1486,25.32812 -1.79,9.5325 -2.6836,19.66702 -2.6836,30.39454 0,22.44998 4.6626,41.81796 14,58.10546 8.5426,14.7025 18.5792,23.6414 30.1016,26.8164 4.1676,1.1925 8.8874,2.0861 14.1524,2.6836 5.2624,0.595 9.883,0.89062 13.8554,0.89062 8.54,0 16.8824,-0.7903 25.0274,-2.3828 2.78,-0.3975 6.1604,-1.2911 10.1328,-2.6836 7.945,-3.175 13.3048,-12.51282 16.0898,-28.00782 0.795,-5.165 1.3906,-12.61266 1.793,-22.34766 0,-19.4675 -4.0788,-41.51734 -12.2188,-66.15234 l -22.9452,-73.89453 c -3.7776,-12.7125 -6.6048,-24.28485 -8.4922,-34.71485 -1.89,-10.4275 -2.8282,-20.21015 -2.8282,-29.34765 0,-25.2275 6.1488,-47.57688 18.4688,-67.04688 9.535,-15.0975 22.0518,-27.5111 37.5468,-37.2461 12.315,-7.7475 21.7486,-11.625 28.3086,-11.625 20.26,0 35.9532,4.87548 47.0782,14.60548 12.91,11.3225 19.3672,29.29967 19.3672,53.92967 l 0.3008,242.85156 c 0,13.705 -0.148,23.09126 -0.4454,28.15626 -0.2974,5.0675 -1.3452,15.34484 -3.1328,30.83986 l 5.3672,5.06638 78.957,0 c 0,-6.95 -4.568,-12.11468 -13.703,-15.49218 -10.9276,-4.77 -17.0852,-10.03188 -18.4728,-15.79688 0,-6.75 -0.104,-16.78234 -0.2968,-30.08982 -0.2,-13.31002 -0.3008,-23.2433 -0.3008,-29.8008 0,-6.55498 -0.102,-16.48688 -0.2968,-29.79688 -0.2,-13.30748 -0.297,-23.34014 -0.297,-30.09764 l -0.2968,-119.18751 c 0,-23.8375 -1.6954,-44.24937 -5.0704,-61.23437 -3.3774,-16.985 -13.3092,-31.77703 -29.7968,-44.39453 -16.49,-12.6125 -35.5596,-18.92577 -57.207,-18.92577 z m -22.6484,68.53515 c -6.3626,0 -12.9156,3.7767 -19.668,11.3242 -5.9576,6.7575 -10.5306,14.30345 -13.7032,22.64845 -4.37,11.52 -6.5586,24.23422 -6.5586,38.13672 0.7926,2.7875 1.8364,5.86328 3.129,9.23828 1.29,3.38 3.0274,5.0664 5.2148,5.0664 l 3.2774,-36.0586 c 1.39,-8.9375 4.5166,-16.63233 9.3866,-23.08983 4.865,-6.455 10.0822,-10.08 15.6446,-10.875 1.59,1.1925 2.7792,1.9878 3.5742,2.3828 2.98,1.7875 5.662,2.6836 8.047,2.6836 1.79,0 3.4738,-0.3964 5.0664,-1.1914 2.1824,-1.39 3.2772,-3.5761 3.2772,-6.5586 0,-2.7775 -1.69,-5.7589 -5.0624,-8.9414 -1.5926,-1.19 -2.885,-2.0847 -3.875,-2.6797 -2.3876,-1.3875 -4.9726,-2.08592 -7.75,-2.08592 z m -2.086,86.41405 c -12.915,0 -24.8812,1.6914 -35.9062,5.0664 -11.025,3.38 -21.8006,8.84172 -32.3282,16.38672 0,4.3725 1.3856,8.14673 4.168,11.32423 0.99,0.2 4.7718,-0.29718 11.3242,-1.49218 6.56,-1.19 12.0182,-1.78516 16.3906,-1.78516 5.96,0.4 10.527,0.69562 13.707,0.89062 9.73,0.9975 16.5836,2.285 20.5586,3.875 8.5376,3.3775 14.5014,6.85468 17.879,10.42968 2.3824,2.58251 3.5742,5.26439 3.5742,8.04689 0,0.795 -0.048,1.39264 -0.144,1.78516 -0.106,0.39998 -0.2544,0.6981 -0.4494,0.8906 0,3.9775 -2.0878,9.83844 -6.2578,17.58594 -3.3824,6.36 -6.7578,11.61906 -10.1328,15.78906 -2.785,-3.575 -7.8502,-13.60124 -15.1952,-30.09374 -2.385,-5.56 -5.8648,-13.70609 -10.4298,-24.43359 -0.5974,-0.5975 -1.5904,-0.89452 -2.9804,-0.89452 -2.98,0 -4.8676,0.7967 -5.6602,2.3867 0.9926,3.575 6.1548,14.59781 15.4922,33.07031 2.9826,6.1625 7.551,15.10032 13.711,26.82032 -3.7776,8.7425 -6.5562,15.9939 -8.3438,21.7539 -5.7674,17.8775 -8.6406,34.26656 -8.6406,49.16406 1.19,8.5425 2.3804,14.99968 3.5704,19.36718 3.975,13.11 9.734,20.66454 17.289,22.64454 2.7774,0.5975 4.9582,1.09718 6.5508,1.49218 1.5874,0.4 2.7792,0.59766 3.5742,0.59766 1.59,0 3.2828,-0.29952 5.0702,-0.89452 1.785,-0.595 3.7646,-1.78672 5.9572,-3.57422 4.3674,-3.375 7.7502,-6.95548 10.1328,-10.73048 3.9724,-6.555 5.957,-14.30218 5.957,-23.24218 0,-6.555 -0.8462,-13.05562 -2.5312,-19.51562 -1.69,-6.4525 -4.7224,-13.85422 -9.09,-22.19922 -2.3824,-4.765 -6.0584,-11.71938 -11.0234,-20.85938 -3.7724,-6.95 -6.1574,-11.71828 -7.1524,-14.30078 6.36,-10.925 14.4004,-22.34812 24.1328,-34.26562 l 28.6094,-35.46094 c -5.9624,-5.7575 -11.2214,-10.03 -15.789,-12.8125 -13.91,-8.5375 -29.1088,-12.8125 -45.5938,-12.8125 z m 2.6836,103.69142 c 1.985,2.785 3.4698,5.16984 4.4648,7.15232 6.56,11.52502 11.818,22.64752 15.793,33.375 1.3926,3.97502 2.8802,7.948 4.4726,11.918 1.3876,4.3725 2.086,8.84016 2.086,13.41016 -0.7974,6.555 -1.691,11.42264 -2.6836,14.59764 -3.18,9.74 -8.0452,14.60158 -14.5976,14.60158 -5.3676,0 -10.034,-2.67798 -14.004,-8.04298 -5.17,-7.15 -7.746,-17.28454 -7.746,-30.39454 0,-11.1225 1.9806,-23.84062 5.953,-38.14062 1.195,-4.7675 3.2818,-10.92406 6.2618,-18.47656 z"
       id="path432"
       inkscape:connector-curvature="0" />
  </g>
</svg>
