<?xml version="1.0" encoding="UTF-8" standalone="no"?>
<!-- Created with Inkscape (http://www.inkscape.org/) -->

<svg
   xmlns:dc="http://purl.org/dc/elements/1.1/"
   xmlns:cc="http://creativecommons.org/ns#"
   xmlns:rdf="http://www.w3.org/1999/02/22-rdf-syntax-ns#"
   xmlns:svg="http://www.w3.org/2000/svg"
   xmlns="http://www.w3.org/2000/svg"
   xmlns:sodipodi="http://sodipodi.sourceforge.net/DTD/sodipodi-0.dtd"
   xmlns:inkscape="http://www.inkscape.org/namespaces/inkscape"
   width="89.897659mm"
   height="111.50953mm"
   viewBox="0 0 318.53501 395.1125"
   id="svg4573"
   version="1.1"
   inkscape:version="0.91 r13725"
   sodipodi:docname="Alphabet19F.svg">
  <defs
     id="defs4575">
    <linearGradient
       x1="0"
       y1="0"
       x2="1"
       y2="0"
       gradientUnits="userSpaceOnUse"
       gradientTransform="matrix(-7e-6,-161,-161,7e-6,76.222656,174.28955)"
       spreadMethod="pad"
       id="linearGradient384">
      <stop
         style="stop-opacity:1;stop-color:#fdc82c"
         offset="0"
         id="stop386" />
      <stop
         style="stop-opacity:1;stop-color:#fdc82c"
         offset="0.239968"
         id="stop388" />
      <stop
         style="stop-opacity:1;stop-color:#236f46"
         offset="1"
         id="stop390" />
    </linearGradient>
  </defs>
  <sodipodi:namedview
     id="base"
     pagecolor="#ffffff"
     bordercolor="#666666"
     borderopacity="1.0"
     inkscape:pageopacity="0.0"
     inkscape:pageshadow="2"
     inkscape:zoom="1.3413901"
     inkscape:cx="159.26751"
     inkscape:cy="197.55625"
     inkscape:document-units="px"
     inkscape:current-layer="layer1"
     showgrid="false"
     fit-margin-top="0"
     fit-margin-left="0"
     fit-margin-right="0"
     fit-margin-bottom="0"
     inkscape:window-width="1366"
     inkscape:window-height="705"
     inkscape:window-x="-8"
     inkscape:window-y="-8"
     inkscape:window-maximized="1" />
  <metadata
     id="metadata4578">
    <rdf:RDF>
      <cc:Work
         rdf:about="">
        <dc:format>image/svg+xml</dc:format>
        <dc:type
           rdf:resource="http://purl.org/dc/dcmitype/StillImage" />
        <dc:title></dc:title>
      </cc:Work>
    </rdf:RDF>
  </metadata>
  <g
     inkscape:label="Layer 1"
     inkscape:groupmode="layer"
     id="layer1"
     transform="translate(-206.44676,-337.66309)">
    <g
       id="g372"
       transform="matrix(2.5,0,0,-2.5,175.15926,769.83559)">
      <g
         id="g374">
        <g
           id="g380">
          <g
             id="g382">
            <path
               d="m 58.82,168.34 c -8.861,-3.021 -17.382,-7.351 -25.566,-12.992 l 0,0 c -6.197,-4.29 -11.203,-9.475 -15.017,-15.554 l 0,0 c -3.815,-6.078 -5.722,-11.979 -5.722,-17.7 l 0,0 c 0,-3.02 0.516,-5.72 1.549,-8.104 l 0,0 c 1.431,-3.259 3.577,-6.079 6.437,-8.463 l 0,0 c 2.146,-1.749 5.006,-3.537 8.581,-5.363 l 0,0 c 2.066,-1.034 4.331,-1.809 6.795,-2.325 l 0,0 c 2.461,-0.517 4.688,-0.775 6.674,-0.775 l 0,0 c 2.623,0 5.203,0.317 7.748,0.954 l 0,0 c 0.793,0.158 1.826,0.476 3.099,0.954 l 0,0 0.237,-59.952 c 0,-3.576 -0.099,-6.577 -0.297,-9 l 0,0 C 53.139,27.596 52.76,26.105 52.205,25.551 l 0,0 C 50.457,23.882 48.391,22.55 46.008,21.559 l 0,0 C 43.624,20.563 42.034,19.592 41.24,18.638 l 0,0 c -0.238,-0.477 -0.357,-0.994 -0.357,-1.55 l 0,0 c 0,-0.637 0.119,-1.153 0.357,-1.549 l 0,0 c 1.111,-0.477 2.701,-0.715 4.768,-0.715 l 0,0 c 2.542,0 5.602,0.257 9.177,0.775 l 0,0 c 3.576,0.516 6.991,1.051 10.25,1.608 l 0,0 c 2.543,0.318 6.753,0.597 12.635,0.835 l 0,0 C 83.949,18.28 88.558,18.4 91.895,18.4 l 0,0 c 5.006,0 7.529,-0.577 7.569,-1.728 l 0,0 c 0.04,-1.153 0.495,-1.61 1.371,-1.371 l 0,0 c 0.874,0.158 1.589,0.357 2.146,0.596 l 0,0 c 0.554,0.238 1.012,0.634 1.37,1.191 l 0,0 c 0.358,0.556 0.536,1.151 0.536,1.789 l 0,0 c 0,1.111 -0.815,2.085 -2.444,2.92 l 0,0 c -1.629,0.833 -3.377,1.37 -5.244,1.608 l 0,0 c -1.867,0.24 -3.318,0.397 -4.35,0.477 l 0,0 c -3.736,0.317 -6.636,0.477 -8.701,0.477 l 0,0 c -1.43,0 -2.881,-0.041 -4.35,-0.118 l 0,0 c -1.472,-0.08 -2.842,-0.239 -4.112,-0.477 l 0,0 c -1.987,-0.4 -3.319,0.595 -3.993,2.979 l 0,0 c -0.676,2.384 -1.013,5.522 -1.013,9.415 l 0,0 0,4.649 0,62.217 c 0.476,0.158 1.907,0.913 4.291,2.264 l 0,0 c 1.668,0.954 3.058,1.43 4.171,1.43 l 0,0 c 7.866,0 14.542,-2.979 20.024,-8.938 l 0,0 C 97.736,91.502 96.821,87.33 96.425,85.264 l 0,0 C 95.629,81.689 95.033,77.595 94.637,72.988 l 0,0 c 0.554,-1.51 1.351,-2.782 2.385,-3.814 l 0,0 c 1.03,-1.033 2.222,-1.549 3.574,-1.549 l 0,0 c 0.954,0 1.867,0.357 2.742,1.072 l 0,0 c 0.873,0.716 1.31,1.47 1.31,2.265 l 0,0 c 0,0.953 -0.377,1.788 -1.132,2.503 l 0,0 c -0.756,0.715 -1.45,1.41 -2.085,2.086 l 0,0 c -0.637,0.674 -0.954,1.648 -0.954,2.92 l 0,0 c 0,1.032 0.158,2.343 0.477,3.933 l 0,0 c 1.589,6.675 3.534,13.07 5.841,19.19 l 0,0 c 0.953,2.541 3.256,8.144 6.912,16.806 l 0,0 c -0.636,1.111 -1.429,1.668 -2.382,1.668 l 0,0 c -0.955,0 -2.069,-0.637 -3.339,-1.907 l 0,0 c -0.16,-0.16 -0.398,-0.476 -0.714,-0.953 l 0,0 -2.505,-3.696 c -1.351,1.351 -3.336,2.205 -5.959,2.563 l 0,0 c -2.621,0.358 -5.999,0.537 -10.13,0.537 l 0,0 c -3.1,-0.399 -5.523,-0.757 -7.272,-1.073 l 0,0 c -5.006,-0.954 -8.622,-2.027 -10.845,-3.218 l 0,0 -0.12,21.693 0.239,17.044 -0.477,0.596 c -2.145,-1.035 -6.556,-3.537 -13.23,-7.509 l 0,0 c -2.305,-1.353 -5.602,-3.338 -9.893,-5.96 l 0,0 0,-3.1 c 3.178,0 4.965,-1.43 5.363,-4.29 l 0,0 0,-23.6 c -1.986,-0.953 -4.072,-1.728 -6.257,-2.323 l 0,0 C 44,104.276 41.875,103.978 39.81,103.978 l 0,0 c -2.783,0 -5.661,0.596 -8.642,1.787 l 0,0 c -2.978,1.193 -5.225,2.384 -6.733,3.576 l 0,0 c -1.83,1.43 -3.397,3.436 -4.709,6.019 l 0,0 c -1.311,2.581 -1.966,5.344 -1.966,8.284 l 0,0 c 0,4.131 1.133,8.283 3.396,12.455 l 0,0 c 2.266,4.172 5.502,7.926 9.715,11.263 l 0,0 c 5.721,4.449 12.971,7.766 21.752,9.953 l 0,0 c 8.779,2.185 17.619,3.277 26.519,3.277 l 0,0 c 8.503,0 15.256,-0.914 20.262,-2.741 l 0,0 c 3.893,-1.51 8.541,-4.37 13.946,-8.581 l 0,0 c 4.767,-3.736 8.659,-7.271 11.681,-10.609 l 0,0 c 4.448,5.8 9.416,11.085 14.898,15.853 l 0,0 -3.337,0 c -5.881,6.674 -13.51,11.52 -22.885,14.541 l 0,0 c -7.946,2.543 -17.362,3.814 -28.248,3.814 l 0,0 c -8.9,0 -17.779,-1.51 -26.639,-4.529"
               style="fill:url(#linearGradient384);stroke:none"
               id="path392"
               inkscape:connector-curvature="0" />
          </g>
        </g>
      </g>
    </g>
  </g>
</svg>
