<?xml version="1.0" encoding="UTF-8" standalone="no"?>
<!-- Created with Inkscape (http://www.inkscape.org/) -->

<svg
   xmlns:dc="http://purl.org/dc/elements/1.1/"
   xmlns:cc="http://creativecommons.org/ns#"
   xmlns:rdf="http://www.w3.org/1999/02/22-rdf-syntax-ns#"
   xmlns:svg="http://www.w3.org/2000/svg"
   xmlns="http://www.w3.org/2000/svg"
   xmlns:sodipodi="http://sodipodi.sourceforge.net/DTD/sodipodi-0.dtd"
   xmlns:inkscape="http://www.inkscape.org/namespaces/inkscape"
   width="88.635414mm"
   height="114.78525mm"
   viewBox="0 0 314.06249 406.71938"
   id="svg4656"
   version="1.1"
   inkscape:version="0.91 r13725"
   sodipodi:docname="Alphabet19L.svg">
  <defs
     id="defs4658">
    <linearGradient
       x1="0"
       y1="0"
       x2="1"
       y2="0"
       gradientUnits="userSpaceOnUse"
       gradientTransform="matrix(-1.8e-5,413.75,-413.75,-1.8e-5,-1251.4305,-213.6448)"
       spreadMethod="pad"
       id="linearGradient384">
      <stop
         style="stop-opacity:1;stop-color:#fdc82c"
         offset="0"
         id="stop386" />
      <stop
         style="stop-opacity:1;stop-color:#fdc82c"
         offset="0.239968"
         id="stop388" />
      <stop
         style="stop-opacity:1;stop-color:#236f46"
         offset="1"
         id="stop390" />
    </linearGradient>
  </defs>
  <sodipodi:namedview
     id="base"
     pagecolor="#ffffff"
     bordercolor="#666666"
     borderopacity="1.0"
     inkscape:pageopacity="0.0"
     inkscape:pageshadow="2"
     inkscape:zoom="1.3031098"
     inkscape:cx="157.03124"
     inkscape:cy="203.35969"
     inkscape:document-units="px"
     inkscape:current-layer="layer1"
     showgrid="false"
     fit-margin-top="0"
     fit-margin-left="0"
     fit-margin-right="0"
     fit-margin-bottom="0"
     inkscape:window-width="1366"
     inkscape:window-height="705"
     inkscape:window-x="-8"
     inkscape:window-y="-8"
     inkscape:window-maximized="1" />
  <metadata
     id="metadata4661">
    <rdf:RDF>
      <cc:Work
         rdf:about="">
        <dc:format>image/svg+xml</dc:format>
        <dc:type
           rdf:resource="http://purl.org/dc/dcmitype/StillImage" />
        <dc:title></dc:title>
      </cc:Work>
    </rdf:RDF>
  </metadata>
  <g
     inkscape:label="Layer 1"
     inkscape:groupmode="layer"
     id="layer1"
     transform="translate(1408.4598,210.99748)">
    <path
       style="fill:url(#linearGradient384);stroke:none"
       d="m -1166.8075,-210.99748 -86.1133,74.1914 0,12.81641 c 3.975,-2.9825 8.0488,-5.96 12.2188,-8.9375 2.98,-1.985 5.56,-3.62298 7.75,-4.91798 2.1825,-1.2875 9.3331,-4.41671 21.4531,-9.38671 12.115,-4.9625 24.3285,-9.92844 36.6485,-14.89844 1.985,-1.1925 3.526,-6.90422 4.621,-17.13672 1.0875,-10.2275 2.2294,-20.80296 3.4219,-31.73046 z m -88.3125,7.64843 c -5.265,0 -16.4511,4.40344 -33.5586,13.21094 -12.5125,6.5525 -25.0279,13.00969 -37.5429,19.36719 -11.7225,4.9675 -22.9419,9.88109 -33.6719,14.74609 -10.7275,4.8725 -17.9814,8.49781 -21.7539,10.88281 -8.3425,5.56 -14.3,10.12812 -17.875,13.70312 -5.9625,6.1575 -8.9375,12.61719 -8.9375,19.36719 0,1.78501 0.097,3.18188 0.2968,4.17188 1.585,8.939996 6.4541,15.297806 14.6016,19.070306 6.5575,2.98 16.1849,4.47267 28.9024,4.47267 17.08,0 32.8739,-4.37579 47.3789,-13.11329 0.3975,-2.982496 -0.1991,-5.067806 -1.7891,-6.257806 -2.98,1.39 -5.3673,2.38047 -7.1523,2.98047 -5.9575,2.382496 -10.7258,3.827806 -14.3008,4.320306 -3.5775,0.4975 -7.2574,1.04563 -11.0274,1.64063 -3.7775,0.595 -7.0545,0.89062 -9.832,0.89062 -4.7675,0 -9.045,-0.74578 -12.8125,-2.23828 -3.7775,-1.4875 -7.3541,-4.018746 -10.7266,-7.593746 -1.5925,-1.7875 -2.7842,-3.67265 -3.5742,-5.66015 -0.8,-1.98501 -1.1914,-3.87657 -1.1914,-5.66407 0,-4.765 2.5772,-9.73094 7.7422,-14.89844 2.385,-2.3825 6.3594,-5.46079 11.9219,-9.23829 3.97,-2.7775 11.9184,-6.35406 23.8359,-10.72656 11.92,-4.365 20.1605,-6.55469 24.7305,-6.55469 4.77,0 8.5392,2.08782 11.3242,6.25782 l 1.1914,255.96095 c 0,9.5325 -5.9564,19.36358 -17.8789,29.49608 -15.1,10.1325 -30.0947,20.16766 -44.9922,30.09766 -3.18,4.3725 -4.7656,7.94656 -4.7656,10.72656 0,7.945 3.7678,12.81406 11.3203,14.60156 13.3075,-1.9825 27.9058,-4.27046 43.8008,-6.85546 4.965,-0.79 11.0756,-1.78406 18.3281,-2.97656 7.2475,-1.19 21.9017,-3.97266 43.9492,-8.34766 15.8925,-3.1725 29.1003,-4.76562 39.6328,-4.76562 7.9425,0 15.8885,0.49828 23.836,1.48828 7.9425,0.9975 16.7361,2.78468 26.3711,5.36718 9.6325,2.585 15.8414,4.56954 18.6289,5.95704 5.555,2.7825 9.2334,6.55672 11.0234,11.32422 2.78,3.575 5.4566,4.66484 8.0391,3.27734 l 37.25,-43.80078 c -10.7275,-7.94 -20.7117,-13.95626 -29.9492,-18.03126 -9.235,-4.07 -16.5335,-6.45094 -21.8985,-7.14844 -5.365,-0.6925 -8.6915,-1.14124 -9.9765,-1.34374 -1.3,-0.195 -3.833,-0.29688 -7.6055,-0.29688 -5.96,0 -14.2055,0.99548 -24.7305,2.98048 -10.5325,1.99 -24.7319,5.46468 -42.6094,10.42968 -23.6425,7.35 -47.4831,14.30688 -71.5156,20.85938 l -54.2305,14.89844 0,-6.25782 c 3.7725,-2.98 9.335,-6.75032 16.6875,-11.32032 8.345,-5.165 17.9749,-10.92514 28.9024,-17.28514 14.1025,-7.94 24.4333,-15.1975 30.9883,-21.75 7.3475,-7.35002 13.0108,-16.49048 16.9883,-27.417984 0.99,-2.98 1.682,-7.79422 2.082,-14.44922 0.395,-6.655 0.5976,-14.85094 0.5976,-24.58594 l 0,-21.45312 c 0,-10.13 0.097,-29.59484029 0.2969,-58.40234 0.195,-28.80001 0.3008,-46.48157 0.3008,-53.03907 l 0,-15.49219 c 0,-41.517496 -0.6998,-70.219686 -2.0898,-86.117186 2.185,-2.1825 3.7734,-3.87 4.7734,-5.0625 3.3725,-4.17 5.0625,-7.75296 5.0625,-10.73046 0,-1.5875 -0.2002,-2.67985 -0.5977,-3.27735 -0.555,-0.2625 -1.2892,-0.39453 -2.1992,-0.39453 z"
       id="path392"
       inkscape:connector-curvature="0" />
  </g>
</svg>
