<?xml version="1.0" standalone="yes"?>

<svg version="1.1" viewBox="0.0 0.0 960.0 720.0" fill="none" stroke="none" stroke-linecap="square" stroke-miterlimit="10" xmlns="http://www.w3.org/2000/svg" xmlns:xlink="http://www.w3.org/1999/xlink"><clipPath id="p.0"><path d="m0 0l960.0 0l0 720.0l-960.0 0l0 -720.0z" clip-rule="nonzero"></path></clipPath><g clip-path="url(#p.0)"><path fill="#000000" fill-opacity="0.0" d="m0 0l960.0 0l0 720.0l-960.0 0z" fill-rule="nonzero"></path><path fill="#ff8d5c" fill-opacity="0.8615" d="m1015.0 -47.496063l-1074.8661 0l0 800.5354l1074.8661 0z" fill-rule="nonzero"></path><path fill="#38761d" d="m1112.7831 67.63825l36.519043 -36.519142l36.519165 36.519142l-18.259521 0l0 76.24857l-36.519165 0l0 -76.24857z" fill-rule="nonzero"></path><path fill="#38761d" d="m1089.482 110.86876l59.82007 -69.0547l59.82019 69.0547z" fill-rule="nonzero"></path><path fill="#000000" fill-opacity="0.0" d="m153.69817 -7.32021l0 728.22046" fill-rule="nonzero"></path><path stroke="#ffffff" stroke-width="24.0" stroke-linejoin="round" stroke-linecap="butt" d="m153.69817 -7.32021l0 728.22046" fill-rule="nonzero"></path><path fill="#000000" fill-opacity="0.0" d="m232.82414 -4.110236l0 728.22046" fill-rule="nonzero"></path><path stroke="#ffffff" stroke-width="24.0" stroke-linejoin="round" stroke-linecap="butt" d="m232.82414 -4.110236l0 728.22046" fill-rule="nonzero"></path><path fill="#000000" fill-opacity="0.0" d="m418.0761 0l0 728.22046" fill-rule="nonzero"></path><path stroke="#ffffff" stroke-width="24.0" stroke-linejoin="round" stroke-linecap="butt" d="m418.0761 0l0 728.22046" fill-rule="nonzero"></path><path fill="#ffffff" d="m163.52887 31.11811l0 -31.11811l59.46457 31.11811z" fill-rule="nonzero"></path><path stroke="#ffffff" stroke-width="2.0" stroke-linejoin="round" stroke-linecap="butt" d="m163.52887 31.11811l0 -31.11811l59.46457 31.11811z" fill-rule="nonzero"></path><path fill="#ffffff" d="m163.52756 62.23622l0 -31.11811l59.46457 31.11811z" fill-rule="nonzero"></path><path stroke="#ffffff" stroke-width="2.0" stroke-linejoin="round" stroke-linecap="butt" d="m163.52756 62.23622l0 -31.11811l59.46457 31.11811z" fill-rule="nonzero"></path><path fill="#ffffff" d="m163.52756 91.833336l0 -31.118114l59.46457 31.118114z" fill-rule="nonzero"></path><path stroke="#ffffff" stroke-width="2.0" stroke-linejoin="round" stroke-linecap="butt" d="m163.52756 91.833336l0 -31.118114l59.46457 31.118114z" fill-rule="nonzero"></path><path fill="#ffffff" d="m163.52756 122.95276l0 -31.11811l59.46457 31.11811z" fill-rule="nonzero"></path><path stroke="#ffffff" stroke-width="2.0" stroke-linejoin="round" stroke-linecap="butt" d="m163.52756 122.95276l0 -31.11811l59.46457 31.11811z" fill-rule="nonzero"></path><path fill="#ffffff" d="m301.6329 280.81854l0 31.118103l-59.464554 -31.118103z" fill-rule="nonzero"></path><path stroke="#ffffff" stroke-width="2.0" stroke-linejoin="round" stroke-linecap="butt" d="m301.6329 280.81854l0 31.118103l-59.464554 -31.118103z" fill-rule="nonzero"></path><path fill="#000000" fill-opacity="0.0" d="m301.63254 -7.32021l0 728.22046" fill-rule="nonzero"></path><path stroke="#ffffff" stroke-width="12.0" stroke-linejoin="round" stroke-linecap="butt" d="m301.63254 -7.32021l0 728.22046" fill-rule="nonzero"></path><path fill="#000000" fill-opacity="0.0" d="m326.56955 -4.110236l0 728.22046" fill-rule="nonzero"></path><path stroke="#ffffff" stroke-width="16.0" stroke-linejoin="round" stroke-linecap="butt" d="m326.56955 -4.110236l0 728.22046" fill-rule="nonzero"></path><path fill="#ffffff" d="m296.961 305.05212l0 31.118103l-59.46457 -31.118103z" fill-rule="nonzero"></path><path stroke="#ffffff" stroke-width="2.0" stroke-linejoin="round" stroke-linecap="butt" d="m296.961 305.05212l0 31.118103l-59.46457 -31.118103z" fill-rule="nonzero"></path><path fill="#ffffff" d="m296.961 336.17023l0 31.118103l-59.46457 -31.118103z" fill-rule="nonzero"></path><path stroke="#ffffff" stroke-width="2.0" stroke-linejoin="round" stroke-linecap="butt" d="m296.961 336.17023l0 31.118103l-59.46457 -31.118103z" fill-rule="nonzero"></path><path fill="#ffffff" d="m296.961 363.5823l0 31.118103l-59.46457 -31.118103z" fill-rule="nonzero"></path><path stroke="#ffffff" stroke-width="2.0" stroke-linejoin="round" stroke-linecap="butt" d="m296.961 363.5823l0 31.118103l-59.46457 -31.118103z" fill-rule="nonzero"></path><path fill="#ffffff" d="m411.8189 464.18634l0 36.692932l-78.99213 -36.692932z" fill-rule="nonzero"></path><path stroke="#ffffff" stroke-width="2.0" stroke-linejoin="round" stroke-linecap="butt" d="m411.8189 464.18634l0 36.692932l-78.99213 -36.692932z" fill-rule="nonzero"></path><path fill="#ffffff" d="m410.97113 433.54855l0 36.6929l-84.409454 -36.6929z" fill-rule="nonzero"></path><path stroke="#ffffff" stroke-width="2.0" stroke-linejoin="round" stroke-linecap="butt" d="m410.97113 433.54855l0 36.6929l-84.409454 -36.6929z" fill-rule="nonzero"></path><path fill="#ffffff" d="m332.82678 436.00525l0 -39.149597l84.409454 39.149597z" fill-rule="nonzero"></path><path stroke="#ffffff" stroke-width="2.0" stroke-linejoin="round" stroke-linecap="butt" d="m332.82678 436.00525l0 -39.149597l84.409454 39.149597z" fill-rule="nonzero"></path><path fill="#ffffff" d="m410.979 222.04724l0 36.6929l-84.409454 -36.6929z" fill-rule="nonzero"></path><path stroke="#ffffff" stroke-width="2.0" stroke-linejoin="round" stroke-linecap="butt" d="m410.979 222.04724l0 36.6929l-84.409454 -36.6929z" fill-rule="nonzero"></path><path fill="#ffffff" d="m332.83466 224.50394l0 -39.149612l84.409454 39.149612z" fill-rule="nonzero"></path><path stroke="#ffffff" stroke-width="2.0" stroke-linejoin="round" stroke-linecap="butt" d="m332.83466 224.50394l0 -39.149612l84.409454 39.149612z" fill-rule="nonzero"></path><path fill="#ffffff" d="m239.00842 600.35l0 -36.692932l-98.826584 36.692932z" fill-rule="nonzero"></path><path stroke="#ffffff" stroke-width="2.0" stroke-linejoin="round" stroke-linecap="butt" d="m239.00842 600.35l0 -36.692932l-98.826584 36.692932z" fill-rule="nonzero"></path><path fill="#ffffff" d="m147.51701 597.8933l0 39.149597l98.826584 -39.149597z" fill-rule="nonzero"></path><path stroke="#ffffff" stroke-width="2.0" stroke-linejoin="round" stroke-linecap="butt" d="m147.51701 597.8933l0 39.149597l98.826584 -39.149597z" fill-rule="nonzero"></path><path fill="#ffffff" d="m163.52887 248.00787l29.732285 -25.007874l29.732285 25.007874z" fill-rule="nonzero"></path><path stroke="#ffffff" stroke-width="2.0" stroke-linejoin="round" stroke-linecap="butt" d="m163.52887 248.00787l29.732285 -25.007874l29.732285 25.007874z" fill-rule="nonzero"></path><path fill="#ffffff" d="m163.52756 223.0l29.732285 -25.007874l29.732285 25.007874z" fill-rule="nonzero"></path><path stroke="#ffffff" stroke-width="2.0" stroke-linejoin="round" stroke-linecap="butt" d="m163.52756 223.0l29.732285 -25.007874l29.732285 25.007874z" fill-rule="nonzero"></path><path fill="#ffffff" d="m163.52756 273.01575l29.732285 -25.007874l29.732285 25.007874z" fill-rule="nonzero"></path><path stroke="#ffffff" stroke-width="2.0" stroke-linejoin="round" stroke-linecap="butt" d="m163.52756 273.01575l29.732285 -25.007874l29.732285 25.007874z" fill-rule="nonzero"></path><path fill="#ffffff" d="m163.52756 298.02362l29.732285 -25.007874l29.732285 25.007874z" fill-rule="nonzero"></path><path stroke="#ffffff" stroke-width="2.0" stroke-linejoin="round" stroke-linecap="butt" d="m163.52756 298.02362l29.732285 -25.007874l29.732285 25.007874z" fill-rule="nonzero"></path><path fill="#ffffff" d="m163.52756 325.45013l29.732285 -25.007874l29.732285 25.007874z" fill-rule="nonzero"></path><path stroke="#ffffff" stroke-width="2.0" stroke-linejoin="round" stroke-linecap="butt" d="m163.52756 325.45013l29.732285 -25.007874l29.732285 25.007874z" fill-rule="nonzero"></path><path fill="#ffffff" d="m408.40817 547.9921l-37.795258 41.007874l-37.795288 -41.007874z" fill-rule="nonzero"></path><path stroke="#ffffff" stroke-width="2.0" stroke-linejoin="round" stroke-linecap="butt" d="m408.40817 547.9921l-37.795258 41.007874l-37.795288 -41.007874z" fill-rule="nonzero"></path><path fill="#ffffff" d="m410.11685 589.0l-37.795288 41.007874l-37.795288 -41.007874z" fill-rule="nonzero"></path><path stroke="#ffffff" stroke-width="2.0" stroke-linejoin="round" stroke-linecap="butt" d="m410.11685 589.0l-37.795288 41.007874l-37.795288 -41.007874z" fill-rule="nonzero"></path><path fill="#ffffff" d="m410.11685 630.0079l-37.795288 41.007874l-37.795288 -41.007874z" fill-rule="nonzero"></path><path stroke="#ffffff" stroke-width="2.0" stroke-linejoin="round" stroke-linecap="butt" d="m410.11685 630.0079l-37.795288 41.007874l-37.795288 -41.007874z" fill-rule="nonzero"></path><path fill="#ffffff" d="m410.11685 671.01575l-37.795288 41.007874l-37.795288 -41.007874z" fill-rule="nonzero"></path><path stroke="#ffffff" stroke-width="2.0" stroke-linejoin="round" stroke-linecap="butt" d="m410.11685 671.01575l-37.795288 41.007874l-37.795288 -41.007874z" fill-rule="nonzero"></path><path fill="#ffffff" d="m410.11685 712.0236l-37.795288 41.007874l-37.795288 -41.007874z" fill-rule="nonzero"></path><path stroke="#ffffff" stroke-width="2.0" stroke-linejoin="round" stroke-linecap="butt" d="m410.11685 712.0236l-37.795288 41.007874l-37.795288 -41.007874z" fill-rule="nonzero"></path><path fill="#ffffff" d="m410.97113 117.37795l0 36.69291l-78.99213 -36.69291z" fill-rule="nonzero"></path><path stroke="#ffffff" stroke-width="2.0" stroke-linejoin="round" stroke-linecap="butt" d="m410.97113 117.37795l0 36.69291l-78.99213 -36.69291z" fill-rule="nonzero"></path><path fill="#ffffff" d="m411.8189 80.68504l0 36.69291l-78.99213 -36.69291z" fill-rule="nonzero"></path><path stroke="#ffffff" stroke-width="2.0" stroke-linejoin="round" stroke-linecap="butt" d="m411.8189 80.68504l0 36.69291l-78.99213 -36.69291z" fill-rule="nonzero"></path><path fill="#ffffff" d="m411.8189 43.992126l0 36.69291l-78.99213 -36.69291z" fill-rule="nonzero"></path><path stroke="#ffffff" stroke-width="2.0" stroke-linejoin="round" stroke-linecap="butt" d="m411.8189 43.992126l0 36.69291l-78.99213 -36.69291z" fill-rule="nonzero"></path><path fill="#ffffff" d="m411.8189 10.545933l0 36.692913l-78.99213 -36.692913z" fill-rule="nonzero"></path><path stroke="#ffffff" stroke-width="2.0" stroke-linejoin="round" stroke-linecap="butt" d="m411.8189 10.545933l0 36.692913l-78.99213 -36.692913z" fill-rule="nonzero"></path><path fill="#ffffff" d="m411.8189 -23.984251l0 36.692913l-78.99213 -36.692913z" fill-rule="nonzero"></path><path stroke="#ffffff" stroke-width="2.0" stroke-linejoin="round" stroke-linecap="butt" d="m411.8189 -23.984251l0 36.692913l-78.99213 -36.692913z" fill-rule="nonzero"></path><path fill="#000000" fill-opacity="0.0" d="m300.04056 529.0l-62.532715 -40.64566l62.532715 -40.64569z" fill-rule="nonzero"></path><path stroke="#ffffff" stroke-width="12.0" stroke-miterlimit="8.0" stroke-linecap="butt" d="m300.04056 529.0l-62.532715 -40.64566l62.532715 -40.64569z" fill-rule="nonzero"></path><path fill="#000000" fill-opacity="0.0" d="m301.6471 605.042l-62.5327 -40.64569l62.5327 -40.64563z" fill-rule="nonzero"></path><path stroke="#ffffff" stroke-width="12.0" stroke-miterlimit="8.0" stroke-linecap="butt" d="m301.6471 605.042l-62.5327 -40.64569l62.5327 -40.64563z" fill-rule="nonzero"></path><path fill="#000000" fill-opacity="0.0" d="m301.6471 686.3333l-62.5327 -40.64563l62.5327 -40.64569z" fill-rule="nonzero"></path><path stroke="#ffffff" stroke-width="12.0" stroke-miterlimit="8.0" stroke-linecap="butt" d="m301.6471 686.3333l-62.5327 -40.64563l62.5327 -40.64569z" fill-rule="nonzero"></path><path fill="#000000" fill-opacity="0.0" d="m301.6471 767.6247l-62.5327 -40.64569l62.5327 -40.64569z" fill-rule="nonzero"></path><path stroke="#ffffff" stroke-width="12.0" stroke-miterlimit="8.0" stroke-linecap="butt" d="m301.6471 767.6247l-62.5327 -40.64569l62.5327 -40.64569z" fill-rule="nonzero"></path><path fill="#000000" fill-opacity="0.0" d="m332.0 243.0l84.0 36.0" fill-rule="nonzero"></path><path stroke="#ffffff" stroke-width="12.0" stroke-linejoin="round" stroke-linecap="butt" d="m332.0 243.0l84.0 36.0" fill-rule="nonzero"></path><path fill="#000000" fill-opacity="0.0" d="m224.0 557.0l-69.00787 25.984253" fill-rule="nonzero"></path><path stroke="#ffffff" stroke-width="8.0" stroke-linejoin="round" stroke-linecap="butt" d="m224.0 557.0l-69.00787 25.984253" fill-rule="nonzero"></path><path fill="#000000" fill-opacity="0.0" d="m231.48819 339.92914l-75.30708 0.09448242" fill-rule="nonzero"></path><path stroke="#ffffff" stroke-width="8.0" stroke-linejoin="round" stroke-linecap="butt" d="m231.48819 339.92914l-75.30708 0.09448242" fill-rule="nonzero"></path><path fill="#000000" fill-opacity="0.0" d="m459.63254 0l0 728.22046" fill-rule="nonzero"></path><path stroke="#ffffff" stroke-width="12.0" stroke-linejoin="round" stroke-linecap="butt" d="m459.63254 0l0 728.22046" fill-rule="nonzero"></path><path fill="#000000" fill-opacity="0.0" d="m506.63254 0l0 728.22046" fill-rule="nonzero"></path><path stroke="#ffffff" stroke-width="24.0" stroke-linejoin="round" stroke-linecap="butt" d="m506.63254 0l0 728.22046" fill-rule="nonzero"></path><path fill="#000000" fill-opacity="0.0" d="m467.08102 190.87712l32.94922 32.51248l-32.94922 32.512466z" fill-rule="nonzero"></path><path stroke="#ffffff" stroke-width="8.0" stroke-miterlimit="8.0" stroke-linecap="butt" d="m467.08102 190.87712l32.94922 32.51248l-32.94922 32.512466z" fill-rule="nonzero"></path><path fill="#000000" fill-opacity="0.0" d="m466.23453 130.05113l32.94922 32.512466l-32.94922 32.51248z" fill-rule="nonzero"></path><path stroke="#ffffff" stroke-width="8.0" stroke-miterlimit="8.0" stroke-linecap="butt" d="m466.23453 130.05113l32.94922 32.512466l-32.94922 32.51248z" fill-rule="nonzero"></path><path fill="#000000" fill-opacity="0.0" d="m466.23453 65.02619l32.94922 32.512474l-32.94922 32.512466z" fill-rule="nonzero"></path><path stroke="#ffffff" stroke-width="8.0" stroke-miterlimit="8.0" stroke-linecap="butt" d="m466.23453 65.02619l32.94922 32.512474l-32.94922 32.512466z" fill-rule="nonzero"></path><path fill="#000000" fill-opacity="0.0" d="m466.23453 0.0012506527l32.94922 32.51247l-32.94922 32.51247z" fill-rule="nonzero"></path><path stroke="#ffffff" stroke-width="8.0" stroke-miterlimit="8.0" stroke-linecap="butt" d="m466.23453 0.0012506527l32.94922 32.51247l-32.94922 32.51247z" fill-rule="nonzero"></path><path fill="#ffffff" d="m462.92783 420.1181l0 -31.118103l40.409454 31.118103z" fill-rule="nonzero"></path><path stroke="#ffffff" stroke-width="2.0" stroke-linejoin="round" stroke-linecap="butt" d="m462.92783 420.1181l0 -31.118103l40.409454 31.118103z" fill-rule="nonzero"></path><path fill="#ffffff" d="m462.92783 451.23624l0 -31.118134l40.409454 31.118134z" fill-rule="nonzero"></path><path stroke="#ffffff" stroke-width="2.0" stroke-linejoin="round" stroke-linecap="butt" d="m462.92783 451.23624l0 -31.118134l40.409454 31.118134z" fill-rule="nonzero"></path><path fill="#ffffff" d="m462.92783 482.35434l0 -31.118134l40.409454 31.118134z" fill-rule="nonzero"></path><path stroke="#ffffff" stroke-width="2.0" stroke-linejoin="round" stroke-linecap="butt" d="m462.92783 482.35434l0 -31.118134l40.409454 31.118134z" fill-rule="nonzero"></path><path fill="#ffffff" d="m462.92783 513.4724l0 -31.118073l40.409454 31.118073z" fill-rule="nonzero"></path><path stroke="#ffffff" stroke-width="2.0" stroke-linejoin="round" stroke-linecap="butt" d="m462.92783 513.4724l0 -31.118073l40.409454 31.118073z" fill-rule="nonzero"></path><path fill="#ffffff" d="m462.92783 544.5906l0 -31.118164l40.409454 31.118164z" fill-rule="nonzero"></path><path stroke="#ffffff" stroke-width="2.0" stroke-linejoin="round" stroke-linecap="butt" d="m462.92783 544.5906l0 -31.118164l40.409454 31.118164z" fill-rule="nonzero"></path><path fill="#ffffff" d="m462.92783 575.7087l0 -31.118103l40.409454 31.118103z" fill-rule="nonzero"></path><path stroke="#ffffff" stroke-width="2.0" stroke-linejoin="round" stroke-linecap="butt" d="m462.92783 575.7087l0 -31.118103l40.409454 31.118103z" fill-rule="nonzero"></path><path fill="#ffffff" d="m462.92783 606.8268l0 -31.118103l40.409454 31.118103z" fill-rule="nonzero"></path><path stroke="#ffffff" stroke-width="2.0" stroke-linejoin="round" stroke-linecap="butt" d="m462.92783 606.8268l0 -31.118103l40.409454 31.118103z" fill-rule="nonzero"></path><path fill="#ffffff" d="m462.92783 637.9449l0 -31.118103l40.409454 31.118103z" fill-rule="nonzero"></path><path stroke="#ffffff" stroke-width="2.0" stroke-linejoin="round" stroke-linecap="butt" d="m462.92783 637.9449l0 -31.118103l40.409454 31.118103z" fill-rule="nonzero"></path><path fill="#ffffff" d="m462.92783 669.063l0 -31.118103l40.409454 31.118103z" fill-rule="nonzero"></path><path stroke="#ffffff" stroke-width="2.0" stroke-linejoin="round" stroke-linecap="butt" d="m462.92783 669.063l0 -31.118103l40.409454 31.118103z" fill-rule="nonzero"></path><path fill="#ffffff" d="m462.92783 700.1811l0 -31.118103l40.409454 31.118103z" fill-rule="nonzero"></path><path stroke="#ffffff" stroke-width="2.0" stroke-linejoin="round" stroke-linecap="butt" d="m462.92783 700.1811l0 -31.118103l40.409454 31.118103z" fill-rule="nonzero"></path><path fill="#ffffff" d="m462.92783 727.2467l0 -31.118103l40.409454 31.118103z" fill-rule="nonzero"></path><path stroke="#ffffff" stroke-width="2.0" stroke-linejoin="round" stroke-linecap="butt" d="m462.92783 727.2467l0 -31.118103l40.409454 31.118103z" fill-rule="nonzero"></path><path fill="#000000" fill-opacity="0.0" d="m460.0 355.0l43.62204 34.015747" fill-rule="nonzero"></path><path stroke="#ffffff" stroke-width="12.0" stroke-linejoin="round" stroke-linecap="butt" d="m460.0 355.0l43.62204 34.015747" fill-rule="nonzero"></path><path fill="#000000" fill-opacity="0.0" d="m461.32285 334.72177l43.62204 34.015778" fill-rule="nonzero"></path><path stroke="#ffffff" stroke-width="8.0" stroke-linejoin="round" stroke-linecap="butt" d="m461.32285 334.72177l43.62204 34.015778" fill-rule="nonzero"></path><path fill="#ffffff" d="m143.86789 475.256l0 48.60959l-66.04116 -48.60959z" fill-rule="nonzero"></path><path stroke="#ffffff" stroke-width="2.0" stroke-linejoin="round" stroke-linecap="butt" d="m143.86789 475.256l0 48.60959l-66.04116 -48.60959z" fill-rule="nonzero"></path><path fill="#ffffff" d="m143.86789 426.64642l0 48.60962l-66.04116 -48.60962z" fill-rule="nonzero"></path><path stroke="#ffffff" stroke-width="2.0" stroke-linejoin="round" stroke-linecap="butt" d="m143.86789 426.64642l0 48.60962l-66.04116 -48.60962z" fill-rule="nonzero"></path><path fill="#ffffff" d="m143.86789 378.0368l0 48.60959l-66.04116 -48.60959z" fill-rule="nonzero"></path><path stroke="#ffffff" stroke-width="2.0" stroke-linejoin="round" stroke-linecap="butt" d="m143.86789 378.0368l0 48.60959l-66.04116 -48.60959z" fill-rule="nonzero"></path><path fill="#ffffff" d="m143.86789 329.42722l0 48.60962l-66.04116 -48.60962z" fill-rule="nonzero"></path><path stroke="#ffffff" stroke-width="2.0" stroke-linejoin="round" stroke-linecap="butt" d="m143.86789 329.42722l0 48.60962l-66.04116 -48.60962z" fill-rule="nonzero"></path><path fill="#000000" fill-opacity="0.0" d="m78.56956 -4.110236l0 728.22046" fill-rule="nonzero"></path><path stroke="#ffffff" stroke-width="16.0" stroke-linejoin="round" stroke-linecap="butt" d="m78.56956 -4.110236l0 728.22046" fill-rule="nonzero"></path><path fill="#000000" fill-opacity="0.0" d="m151.49738 325.45145l-59.874016 -47.424866l59.874016 -39.535767z" fill-rule="nonzero"></path><path stroke="#ffffff" stroke-width="24.0" stroke-miterlimit="8.0" stroke-linecap="butt" d="m151.49738 325.45145l-59.874016 -47.424866l59.874016 -39.535767z" fill-rule="nonzero"></path><path fill="#000000" fill-opacity="0.0" d="m151.49213 244.03412l-59.874016 -47.42485l59.874016 -39.53578z" fill-rule="nonzero"></path><path stroke="#ffffff" stroke-width="24.0" stroke-miterlimit="8.0" stroke-linecap="butt" d="m151.49213 244.03412l-59.874016 -47.42485l59.874016 -39.53578z" fill-rule="nonzero"></path><path fill="#000000" fill-opacity="0.0" d="m153.69423 163.67192l-59.874016 -47.42486l59.874016 -39.53578z" fill-rule="nonzero"></path><path stroke="#ffffff" stroke-width="24.0" stroke-miterlimit="8.0" stroke-linecap="butt" d="m153.69423 163.67192l-59.874016 -47.42486l59.874016 -39.53578z" fill-rule="nonzero"></path><path fill="#000000" fill-opacity="0.0" d="m921.7773 721.31366l0 -728.22046" fill-rule="nonzero"></path><path stroke="#ffffff" stroke-width="24.0" stroke-linejoin="round" stroke-linecap="butt" d="m921.7773 721.31366l0 -728.22046" fill-rule="nonzero"></path><path fill="#000000" fill-opacity="0.0" d="m819.171 725.4239l0 -728.22046" fill-rule="nonzero"></path><path stroke="#ffffff" stroke-width="16.0" stroke-linejoin="round" stroke-linecap="butt" d="m819.171 725.4239l0 -728.22046" fill-rule="nonzero"></path><path fill="#ffffff" d="m914.76105 257.1273l0 -36.6929l-88.57385 36.6929z" fill-rule="nonzero"></path><path stroke="#ffffff" stroke-width="2.0" stroke-linejoin="round" stroke-linecap="butt" d="m914.76105 257.1273l0 -36.6929l-88.57385 36.6929z" fill-rule="nonzero"></path><path fill="#ffffff" d="m913.8105 287.7651l0 -36.692932l-94.648315 36.692932z" fill-rule="nonzero"></path><path stroke="#ffffff" stroke-width="2.0" stroke-linejoin="round" stroke-linecap="butt" d="m913.8105 287.7651l0 -36.692932l-94.648315 36.692932z" fill-rule="nonzero"></path><path fill="#ffffff" d="m826.1872 285.3084l0 39.149597l94.648315 -39.149597z" fill-rule="nonzero"></path><path stroke="#ffffff" stroke-width="2.0" stroke-linejoin="round" stroke-linecap="butt" d="m826.1872 285.3084l0 39.149597l94.648315 -39.149597z" fill-rule="nonzero"></path><path fill="#ffffff" d="m913.8193 499.26642l0 -36.692932l-94.648315 36.692932z" fill-rule="nonzero"></path><path stroke="#ffffff" stroke-width="2.0" stroke-linejoin="round" stroke-linecap="butt" d="m913.8193 499.26642l0 -36.692932l-94.648315 36.692932z" fill-rule="nonzero"></path><path fill="#ffffff" d="m826.19604 496.80972l0 39.149567l94.648315 -39.149567z" fill-rule="nonzero"></path><path stroke="#ffffff" stroke-width="2.0" stroke-linejoin="round" stroke-linecap="butt" d="m826.19604 496.80972l0 39.149567l94.648315 -39.149567z" fill-rule="nonzero"></path><path fill="#ffffff" d="m910.9366 173.32152l-42.37982 -41.007874l-42.37982 41.007874z" fill-rule="nonzero"></path><path stroke="#ffffff" stroke-width="2.0" stroke-linejoin="round" stroke-linecap="butt" d="m910.9366 173.32152l-42.37982 -41.007874l-42.37982 41.007874z" fill-rule="nonzero"></path><path fill="#ffffff" d="m912.85254 132.31364l-42.379883 -41.007874l-42.37982 41.007874z" fill-rule="nonzero"></path><path stroke="#ffffff" stroke-width="2.0" stroke-linejoin="round" stroke-linecap="butt" d="m912.85254 132.31364l-42.379883 -41.007874l-42.37982 41.007874z" fill-rule="nonzero"></path><path fill="#ffffff" d="m912.85254 91.30577l-42.379883 -41.00787l-42.37982 41.00787z" fill-rule="nonzero"></path><path stroke="#ffffff" stroke-width="2.0" stroke-linejoin="round" stroke-linecap="butt" d="m912.85254 91.30577l-42.379883 -41.00787l-42.37982 41.00787z" fill-rule="nonzero"></path><path fill="#ffffff" d="m912.85254 50.2979l-42.379883 -41.007874l-42.37982 41.007874z" fill-rule="nonzero"></path><path stroke="#ffffff" stroke-width="2.0" stroke-linejoin="round" stroke-linecap="butt" d="m912.85254 50.2979l-42.379883 -41.007874l-42.37982 41.007874z" fill-rule="nonzero"></path><path fill="#ffffff" d="m912.85254 9.290026l-42.379883 -41.007874l-42.37982 41.007874z" fill-rule="nonzero"></path><path stroke="#ffffff" stroke-width="2.0" stroke-linejoin="round" stroke-linecap="butt" d="m912.85254 9.290026l-42.379883 -41.007874l-42.37982 41.007874z" fill-rule="nonzero"></path><path fill="#ffffff" d="m913.8104 603.93567l0 -36.69287l-88.57385 36.69287z" fill-rule="nonzero"></path><path stroke="#ffffff" stroke-width="2.0" stroke-linejoin="round" stroke-linecap="butt" d="m913.8104 603.93567l0 -36.69287l-88.57385 36.69287z" fill-rule="nonzero"></path><path fill="#ffffff" d="m914.76105 640.6286l0 -36.692932l-88.57385 36.692932z" fill-rule="nonzero"></path><path stroke="#ffffff" stroke-width="2.0" stroke-linejoin="round" stroke-linecap="butt" d="m914.76105 640.6286l0 -36.692932l-88.57385 36.692932z" fill-rule="nonzero"></path><path fill="#ffffff" d="m914.76105 677.32153l0 -36.692932l-88.57385 36.692932z" fill-rule="nonzero"></path><path stroke="#ffffff" stroke-width="2.0" stroke-linejoin="round" stroke-linecap="butt" d="m914.76105 677.32153l0 -36.692932l-88.57385 36.692932z" fill-rule="nonzero"></path><path fill="#ffffff" d="m914.76105 710.7677l0 -36.69287l-88.57385 36.69287z" fill-rule="nonzero"></path><path stroke="#ffffff" stroke-width="2.0" stroke-linejoin="round" stroke-linecap="butt" d="m914.76105 710.7677l0 -36.69287l-88.57385 36.69287z" fill-rule="nonzero"></path><path fill="#ffffff" d="m914.76105 745.2979l0 -36.692932l-88.57385 36.692932z" fill-rule="nonzero"></path><path stroke="#ffffff" stroke-width="2.0" stroke-linejoin="round" stroke-linecap="butt" d="m914.76105 745.2979l0 -36.692932l-88.57385 36.692932z" fill-rule="nonzero"></path><path fill="#000000" fill-opacity="0.0" d="m825.2602 478.31366l94.18921 -36.0" fill-rule="nonzero"></path><path stroke="#ffffff" stroke-width="12.0" stroke-linejoin="round" stroke-linecap="butt" d="m825.2602 478.31366l94.18921 -36.0" fill-rule="nonzero"></path><path fill="#000000" fill-opacity="0.0" d="m540.1623 727.4488l0 -728.2204" fill-rule="nonzero"></path><path stroke="#ffffff" stroke-width="24.0" stroke-linejoin="round" stroke-linecap="butt" d="m540.1623 727.4488l0 -728.2204" fill-rule="nonzero"></path><path fill="#000000" fill-opacity="0.0" d="m628.8863 724.23883l0 -728.22046" fill-rule="nonzero"></path><path stroke="#ffffff" stroke-width="24.0" stroke-linejoin="round" stroke-linecap="butt" d="m628.8863 724.23883l0 -728.22046" fill-rule="nonzero"></path><path fill="#ffffff" d="m551.18555 689.0105l0 31.118103l66.67761 -31.118103z" fill-rule="nonzero"></path><path stroke="#ffffff" stroke-width="2.0" stroke-linejoin="round" stroke-linecap="butt" d="m551.18555 689.0105l0 31.118103l66.67761 -31.118103z" fill-rule="nonzero"></path><path fill="#ffffff" d="m551.1841 657.8924l0 31.118103l66.67761 -31.118103z" fill-rule="nonzero"></path><path stroke="#ffffff" stroke-width="2.0" stroke-linejoin="round" stroke-linecap="butt" d="m551.1841 657.8924l0 31.118103l66.67761 -31.118103z" fill-rule="nonzero"></path><path fill="#ffffff" d="m551.1841 628.2953l0 31.118103l66.67761 -31.118103z" fill-rule="nonzero"></path><path stroke="#ffffff" stroke-width="2.0" stroke-linejoin="round" stroke-linecap="butt" d="m551.1841 628.2953l0 31.118103l66.67761 -31.118103z" fill-rule="nonzero"></path><path fill="#ffffff" d="m551.1841 597.17584l0 31.118103l66.67761 -31.118103z" fill-rule="nonzero"></path><path stroke="#ffffff" stroke-width="2.0" stroke-linejoin="round" stroke-linecap="butt" d="m551.1841 597.17584l0 31.118103l66.67761 -31.118103z" fill-rule="nonzero"></path><path fill="#ffffff" d="m706.04156 439.3101l0 -31.118134l-66.67761 31.118134z" fill-rule="nonzero"></path><path stroke="#ffffff" stroke-width="2.0" stroke-linejoin="round" stroke-linecap="butt" d="m706.04156 439.3101l0 -31.118134l-66.67761 31.118134z" fill-rule="nonzero"></path><path fill="#000000" fill-opacity="0.0" d="m706.0412 727.4488l0 -728.2204" fill-rule="nonzero"></path><path stroke="#ffffff" stroke-width="12.0" stroke-linejoin="round" stroke-linecap="butt" d="m706.0412 727.4488l0 -728.2204" fill-rule="nonzero"></path><path fill="#ffffff" d="m700.803 415.07648l0 -31.118103l-66.67761 31.118103z" fill-rule="nonzero"></path><path stroke="#ffffff" stroke-width="2.0" stroke-linejoin="round" stroke-linecap="butt" d="m700.803 415.07648l0 -31.118103l-66.67761 31.118103z" fill-rule="nonzero"></path><path fill="#ffffff" d="m700.803 383.95837l0 -31.118103l-66.67761 31.118103z" fill-rule="nonzero"></path><path stroke="#ffffff" stroke-width="2.0" stroke-linejoin="round" stroke-linecap="butt" d="m700.803 383.95837l0 -31.118103l-66.67761 31.118103z" fill-rule="nonzero"></path><path fill="#ffffff" d="m700.803 356.5463l0 -31.118103l-66.67761 31.118103z" fill-rule="nonzero"></path><path stroke="#ffffff" stroke-width="2.0" stroke-linejoin="round" stroke-linecap="butt" d="m700.803 356.5463l0 -31.118103l-66.67761 31.118103z" fill-rule="nonzero"></path><path fill="#ffffff" d="m635.82074 119.77866l0 36.69291l-110.81427 -36.69291z" fill-rule="nonzero"></path><path stroke="#ffffff" stroke-width="2.0" stroke-linejoin="round" stroke-linecap="butt" d="m635.82074 119.77866l0 36.69291l-110.81427 -36.69291z" fill-rule="nonzero"></path><path fill="#ffffff" d="m533.2314 122.23536l0 -39.149605l110.81427 39.149605z" fill-rule="nonzero"></path><path stroke="#ffffff" stroke-width="2.0" stroke-linejoin="round" stroke-linecap="butt" d="m533.2314 122.23536l0 -39.149605l110.81427 39.149605z" fill-rule="nonzero"></path><path fill="#ffffff" d="m551.18555 472.12073l33.338806 25.007874l33.338806 -25.007874z" fill-rule="nonzero"></path><path stroke="#ffffff" stroke-width="2.0" stroke-linejoin="round" stroke-linecap="butt" d="m551.18555 472.12073l33.338806 25.007874l33.338806 -25.007874z" fill-rule="nonzero"></path><path fill="#ffffff" d="m551.1841 497.1286l33.338806 25.007874l33.338806 -25.007874z" fill-rule="nonzero"></path><path stroke="#ffffff" stroke-width="2.0" stroke-linejoin="round" stroke-linecap="butt" d="m551.1841 497.1286l33.338806 25.007874l33.338806 -25.007874z" fill-rule="nonzero"></path><path fill="#ffffff" d="m551.1841 447.11285l33.338806 25.007874l33.338806 -25.007874z" fill-rule="nonzero"></path><path stroke="#ffffff" stroke-width="2.0" stroke-linejoin="round" stroke-linecap="butt" d="m551.1841 447.11285l33.338806 25.007874l33.338806 -25.007874z" fill-rule="nonzero"></path><path fill="#ffffff" d="m551.1841 422.10498l33.338806 25.007874l33.338806 -25.007874z" fill-rule="nonzero"></path><path stroke="#ffffff" stroke-width="2.0" stroke-linejoin="round" stroke-linecap="butt" d="m551.1841 422.10498l33.338806 25.007874l33.338806 -25.007874z" fill-rule="nonzero"></path><path fill="#ffffff" d="m551.1841 394.67847l33.338806 25.007874l33.338806 -25.007874z" fill-rule="nonzero"></path><path stroke="#ffffff" stroke-width="2.0" stroke-linejoin="round" stroke-linecap="butt" d="m551.1841 394.67847l33.338806 25.007874l33.338806 -25.007874z" fill-rule="nonzero"></path><path fill="#000000" fill-opacity="0.0" d="m704.25604 191.12862l-70.11792 40.64566l70.11792 40.645676z" fill-rule="nonzero"></path><path stroke="#ffffff" stroke-width="12.0" stroke-miterlimit="8.0" stroke-linecap="butt" d="m704.25604 191.12862l-70.11792 40.64566l70.11792 40.645676z" fill-rule="nonzero"></path><path fill="#000000" fill-opacity="0.0" d="m706.05743 115.08662l-70.11792 40.645668l70.11792 40.645676z" fill-rule="nonzero"></path><path stroke="#ffffff" stroke-width="12.0" stroke-miterlimit="8.0" stroke-linecap="butt" d="m706.05743 115.08662l-70.11792 40.645668l70.11792 40.645676z" fill-rule="nonzero"></path><path fill="#000000" fill-opacity="0.0" d="m706.05743 33.795277l-70.11792 40.64567l70.11792 40.645668z" fill-rule="nonzero"></path><path stroke="#ffffff" stroke-width="12.0" stroke-miterlimit="8.0" stroke-linecap="butt" d="m706.05743 33.795277l-70.11792 40.64567l70.11792 40.645668z" fill-rule="nonzero"></path><path fill="#000000" fill-opacity="0.0" d="m706.05743 -47.496063l-70.11792 40.645668l70.11792 40.645668z" fill-rule="nonzero"></path><path stroke="#ffffff" stroke-width="12.0" stroke-miterlimit="8.0" stroke-linecap="butt" d="m706.05743 -47.496063l-70.11792 40.645668l70.11792 40.645668z" fill-rule="nonzero"></path><path fill="#000000" fill-opacity="0.0" d="m618.9918 163.12862l-77.37854 -25.984253" fill-rule="nonzero"></path><path stroke="#ffffff" stroke-width="8.0" stroke-linejoin="round" stroke-linecap="butt" d="m618.9918 163.12862l-77.37854 -25.984253" fill-rule="nonzero"></path><path fill="#000000" fill-opacity="0.0" d="m627.3883 380.19946l-84.44183 -0.09448242" fill-rule="nonzero"></path><path stroke="#ffffff" stroke-width="8.0" stroke-linejoin="round" stroke-linecap="butt" d="m627.3883 380.19946l-84.44183 -0.09448242" fill-rule="nonzero"></path><path fill="#000000" fill-opacity="0.0" d="m736.25903 720.90027l0 -728.22046" fill-rule="nonzero"></path><path stroke="#ffffff" stroke-width="12.0" stroke-linejoin="round" stroke-linecap="butt" d="m736.25903 720.90027l0 -728.22046" fill-rule="nonzero"></path><path fill="#000000" fill-opacity="0.0" d="m788.96014 720.90027l0 -728.22046" fill-rule="nonzero"></path><path stroke="#ffffff" stroke-width="24.0" stroke-linejoin="round" stroke-linecap="butt" d="m788.96014 720.90027l0 -728.22046" fill-rule="nonzero"></path><path fill="#000000" fill-opacity="0.0" d="m744.61096 530.02313l36.945984 -32.51245l-36.945984 -32.51248z" fill-rule="nonzero"></path><path stroke="#ffffff" stroke-width="8.0" stroke-miterlimit="8.0" stroke-linecap="butt" d="m744.61096 530.02313l36.945984 -32.51245l-36.945984 -32.51248z" fill-rule="nonzero"></path><path fill="#000000" fill-opacity="0.0" d="m743.6618 590.8491l36.945923 -32.51245l-36.945923 -32.51245z" fill-rule="nonzero"></path><path stroke="#ffffff" stroke-width="8.0" stroke-miterlimit="8.0" stroke-linecap="butt" d="m743.6618 590.8491l36.945923 -32.51245l-36.945923 -32.51245z" fill-rule="nonzero"></path><path fill="#000000" fill-opacity="0.0" d="m743.6618 655.8741l36.945923 -32.51245l-36.945923 -32.512512z" fill-rule="nonzero"></path><path stroke="#ffffff" stroke-width="8.0" stroke-miterlimit="8.0" stroke-linecap="butt" d="m743.6618 655.8741l36.945923 -32.51245l-36.945923 -32.512512z" fill-rule="nonzero"></path><path fill="#000000" fill-opacity="0.0" d="m743.6618 720.89905l36.945923 -32.512512l-36.945923 -32.51245z" fill-rule="nonzero"></path><path stroke="#ffffff" stroke-width="8.0" stroke-miterlimit="8.0" stroke-linecap="butt" d="m743.6618 720.89905l36.945923 -32.512512l-36.945923 -32.51245z" fill-rule="nonzero"></path><path fill="#ffffff" d="m739.95404 300.78217l0 31.118103l45.311096 -31.118103z" fill-rule="nonzero"></path><path stroke="#ffffff" stroke-width="2.0" stroke-linejoin="round" stroke-linecap="butt" d="m739.95404 300.78217l0 31.118103l45.311096 -31.118103z" fill-rule="nonzero"></path><path fill="#ffffff" d="m739.95404 269.66403l0 31.118134l45.311096 -31.118134z" fill-rule="nonzero"></path><path stroke="#ffffff" stroke-width="2.0" stroke-linejoin="round" stroke-linecap="butt" d="m739.95404 269.66403l0 31.118134l45.311096 -31.118134z" fill-rule="nonzero"></path><path fill="#ffffff" d="m739.95404 238.54593l0 31.118103l45.311096 -31.118103z" fill-rule="nonzero"></path><path stroke="#ffffff" stroke-width="2.0" stroke-linejoin="round" stroke-linecap="butt" d="m739.95404 238.54593l0 31.118103l45.311096 -31.118103z" fill-rule="nonzero"></path><path fill="#ffffff" d="m739.95404 207.42783l0 31.118103l45.311096 -31.118103z" fill-rule="nonzero"></path><path stroke="#ffffff" stroke-width="2.0" stroke-linejoin="round" stroke-linecap="butt" d="m739.95404 207.42783l0 31.118103l45.311096 -31.118103z" fill-rule="nonzero"></path><path fill="#ffffff" d="m739.95404 176.30971l0 31.118118l45.311096 -31.118118z" fill-rule="nonzero"></path><path stroke="#ffffff" stroke-width="2.0" stroke-linejoin="round" stroke-linecap="butt" d="m739.95404 176.30971l0 31.118118l45.311096 -31.118118z" fill-rule="nonzero"></path><path fill="#ffffff" d="m739.95404 145.1916l0 31.118103l45.311096 -31.118103z" fill-rule="nonzero"></path><path stroke="#ffffff" stroke-width="2.0" stroke-linejoin="round" stroke-linecap="butt" d="m739.95404 145.1916l0 31.118103l45.311096 -31.118103z" fill-rule="nonzero"></path><path fill="#ffffff" d="m739.95404 114.07349l0 31.118118l45.311096 -31.118118z" fill-rule="nonzero"></path><path stroke="#ffffff" stroke-width="2.0" stroke-linejoin="round" stroke-linecap="butt" d="m739.95404 114.07349l0 31.118118l45.311096 -31.118118z" fill-rule="nonzero"></path><path fill="#ffffff" d="m739.95404 82.955376l0 31.118118l45.311096 -31.118118z" fill-rule="nonzero"></path><path stroke="#ffffff" stroke-width="2.0" stroke-linejoin="round" stroke-linecap="butt" d="m739.95404 82.955376l0 31.118118l45.311096 -31.118118z" fill-rule="nonzero"></path><path fill="#ffffff" d="m739.95404 51.83727l0 31.118114l45.311096 -31.118114z" fill-rule="nonzero"></path><path stroke="#ffffff" stroke-width="2.0" stroke-linejoin="round" stroke-linecap="butt" d="m739.95404 51.83727l0 31.118114l45.311096 -31.118114z" fill-rule="nonzero"></path><path fill="#ffffff" d="m739.95404 20.719158l0 31.11811l45.311096 -31.11811z" fill-rule="nonzero"></path><path stroke="#ffffff" stroke-width="2.0" stroke-linejoin="round" stroke-linecap="butt" d="m739.95404 20.719158l0 31.11811l45.311096 -31.11811z" fill-rule="nonzero"></path><path fill="#ffffff" d="m739.95404 -6.346458l0 31.118113l45.311096 -31.118113z" fill-rule="nonzero"></path><path stroke="#ffffff" stroke-width="2.0" stroke-linejoin="round" stroke-linecap="butt" d="m739.95404 -6.346458l0 31.118113l45.311096 -31.118113z" fill-rule="nonzero"></path><path fill="#000000" fill-opacity="0.0" d="m736.6711 365.90027l48.91339 -34.015747" fill-rule="nonzero"></path><path stroke="#ffffff" stroke-width="12.0" stroke-linejoin="round" stroke-linecap="butt" d="m736.6711 365.90027l48.91339 -34.015747" fill-rule="nonzero"></path><path fill="#000000" fill-opacity="0.0" d="m738.15436 386.17847l48.91339 -34.015747" fill-rule="nonzero"></path><path stroke="#ffffff" stroke-width="8.0" stroke-linejoin="round" stroke-linecap="butt" d="m738.15436 386.17847l48.91339 -34.015747" fill-rule="nonzero"></path><path fill="#000000" fill-opacity="0.0" d="m974.4772 -4.110236l0 728.22046" fill-rule="nonzero"></path><path stroke="#ffffff" stroke-width="12.0" stroke-linejoin="round" stroke-linecap="butt" d="m974.4772 -4.110236l0 728.22046" fill-rule="nonzero"></path><path fill="#000000" fill-opacity="0.0" d="m921.77606 -4.110236l0 728.22046" fill-rule="nonzero"></path><path stroke="#ffffff" stroke-width="24.0" stroke-linejoin="round" stroke-linecap="butt" d="m921.77606 -4.110236l0 728.22046" fill-rule="nonzero"></path><path fill="#000000" fill-opacity="0.0" d="m966.11615 186.76688l-36.944275 32.512466l36.944275 32.512466z" fill-rule="nonzero"></path><path stroke="#ffffff" stroke-width="8.0" stroke-miterlimit="8.0" stroke-linecap="butt" d="m966.11615 186.76688l-36.944275 32.512466l36.944275 32.512466z" fill-rule="nonzero"></path><path fill="#000000" fill-opacity="0.0" d="m967.0653 125.94088l-36.944275 32.512474l36.944275 32.512466z" fill-rule="nonzero"></path><path stroke="#ffffff" stroke-width="8.0" stroke-miterlimit="8.0" stroke-linecap="butt" d="m967.0653 125.94088l-36.944275 32.512474l36.944275 32.512466z" fill-rule="nonzero"></path><path fill="#000000" fill-opacity="0.0" d="m967.0653 60.91594l-36.944275 32.512474l36.944275 32.512466z" fill-rule="nonzero"></path><path stroke="#ffffff" stroke-width="8.0" stroke-miterlimit="8.0" stroke-linecap="butt" d="m967.0653 60.91594l-36.944275 32.512474l36.944275 32.512466z" fill-rule="nonzero"></path><path fill="#000000" fill-opacity="0.0" d="m967.0653 -4.109001l-36.944275 32.512474l36.944275 32.512466z" fill-rule="nonzero"></path><path stroke="#ffffff" stroke-width="8.0" stroke-miterlimit="8.0" stroke-linecap="butt" d="m967.0653 -4.109001l-36.944275 32.512474l36.944275 32.512466z" fill-rule="nonzero"></path><path fill="#ffffff" d="m970.78217 416.00787l0 -31.118103l-45.311096 31.118103z" fill-rule="nonzero"></path><path stroke="#ffffff" stroke-width="2.0" stroke-linejoin="round" stroke-linecap="butt" d="m970.78217 416.00787l0 -31.118103l-45.311096 31.118103z" fill-rule="nonzero"></path><path fill="#ffffff" d="m970.78217 447.12598l0 -31.118103l-45.311096 31.118103z" fill-rule="nonzero"></path><path stroke="#ffffff" stroke-width="2.0" stroke-linejoin="round" stroke-linecap="butt" d="m970.78217 447.12598l0 -31.118103l-45.311096 31.118103z" fill-rule="nonzero"></path><path fill="#ffffff" d="m970.78217 478.2441l0 -31.118134l-45.311096 31.118134z" fill-rule="nonzero"></path><path stroke="#ffffff" stroke-width="2.0" stroke-linejoin="round" stroke-linecap="butt" d="m970.78217 478.2441l0 -31.118134l-45.311096 31.118134z" fill-rule="nonzero"></path><path fill="#ffffff" d="m970.78217 509.3622l0 -31.118134l-45.311096 31.118134z" fill-rule="nonzero"></path><path stroke="#ffffff" stroke-width="2.0" stroke-linejoin="round" stroke-linecap="butt" d="m970.78217 509.3622l0 -31.118134l-45.311096 31.118134z" fill-rule="nonzero"></path><path fill="#ffffff" d="m970.78217 540.4803l0 -31.118073l-45.311096 31.118073z" fill-rule="nonzero"></path><path stroke="#ffffff" stroke-width="2.0" stroke-linejoin="round" stroke-linecap="butt" d="m970.78217 540.4803l0 -31.118073l-45.311096 31.118073z" fill-rule="nonzero"></path><path fill="#ffffff" d="m970.78217 571.59845l0 -31.118164l-45.311096 31.118164z" fill-rule="nonzero"></path><path stroke="#ffffff" stroke-width="2.0" stroke-linejoin="round" stroke-linecap="butt" d="m970.78217 571.59845l0 -31.118164l-45.311096 31.118164z" fill-rule="nonzero"></path><path fill="#ffffff" d="m970.78217 602.71655l0 -31.118103l-45.311096 31.118103z" fill-rule="nonzero"></path><path stroke="#ffffff" stroke-width="2.0" stroke-linejoin="round" stroke-linecap="butt" d="m970.78217 602.71655l0 -31.118103l-45.311096 31.118103z" fill-rule="nonzero"></path><path fill="#ffffff" d="m970.78217 633.83466l0 -31.118103l-45.311096 31.118103z" fill-rule="nonzero"></path><path stroke="#ffffff" stroke-width="2.0" stroke-linejoin="round" stroke-linecap="butt" d="m970.78217 633.83466l0 -31.118103l-45.311096 31.118103z" fill-rule="nonzero"></path><path fill="#ffffff" d="m970.78217 664.95276l0 -31.118103l-45.311096 31.118103z" fill-rule="nonzero"></path><path stroke="#ffffff" stroke-width="2.0" stroke-linejoin="round" stroke-linecap="butt" d="m970.78217 664.95276l0 -31.118103l-45.311096 31.118103z" fill-rule="nonzero"></path><path fill="#ffffff" d="m970.78217 696.07086l0 -31.118103l-45.311096 31.118103z" fill-rule="nonzero"></path><path stroke="#ffffff" stroke-width="2.0" stroke-linejoin="round" stroke-linecap="butt" d="m970.78217 696.07086l0 -31.118103l-45.311096 31.118103z" fill-rule="nonzero"></path><path fill="#ffffff" d="m970.78217 723.1365l0 -31.118103l-45.311096 31.118103z" fill-rule="nonzero"></path><path stroke="#ffffff" stroke-width="2.0" stroke-linejoin="round" stroke-linecap="butt" d="m970.78217 723.1365l0 -31.118103l-45.311096 31.118103z" fill-rule="nonzero"></path><path fill="#000000" fill-opacity="0.0" d="m974.0651 350.88977l-48.91339 34.015747" fill-rule="nonzero"></path><path stroke="#ffffff" stroke-width="12.0" stroke-linejoin="round" stroke-linecap="butt" d="m974.0651 350.88977l-48.91339 34.015747" fill-rule="nonzero"></path><path fill="#000000" fill-opacity="0.0" d="m972.58185 330.61154l-48.91339 34.015747" fill-rule="nonzero"></path><path stroke="#ffffff" stroke-width="8.0" stroke-linejoin="round" stroke-linecap="butt" d="m972.58185 330.61154l-48.91339 34.015747" fill-rule="nonzero"></path><path fill="#000000" fill-opacity="0.0" d="m56.632545 -4.110236l0 728.22046" fill-rule="nonzero"></path><path stroke="#ffffff" stroke-width="16.0" stroke-linejoin="round" stroke-linecap="butt" d="m56.632545 -4.110236l0 728.22046" fill-rule="nonzero"></path><path fill="#000000" fill-opacity="0.0" d="m-1.8083657 724.10895l0 -728.22046" fill-rule="nonzero"></path><path stroke="#ffffff" stroke-width="24.0" stroke-linejoin="round" stroke-linecap="butt" d="m-1.8083657 724.10895l0 -728.22046" fill-rule="nonzero"></path><path fill="#ffffff" d="m62.46911 116.438774l0 36.69291l-74.466156 -36.69291z" fill-rule="nonzero"></path><path stroke="#ffffff" stroke-width="2.0" stroke-linejoin="round" stroke-linecap="butt" d="m62.46911 116.438774l0 36.69291l-74.466156 -36.69291z" fill-rule="nonzero"></path><path fill="#ffffff" d="m-6.46997 118.89546l0 -39.149605l74.466156 39.149605z" fill-rule="nonzero"></path><path stroke="#ffffff" stroke-width="2.0" stroke-linejoin="round" stroke-linecap="butt" d="m-6.46997 118.89546l0 -39.149605l74.466156 39.149605z" fill-rule="nonzero"></path><path fill="#ffffff" d="m5.599212 468.78085l22.403528 25.007874l22.403528 -25.007874z" fill-rule="nonzero"></path><path stroke="#ffffff" stroke-width="2.0" stroke-linejoin="round" stroke-linecap="butt" d="m5.599212 468.78085l22.403528 25.007874l22.403528 -25.007874z" fill-rule="nonzero"></path><path fill="#ffffff" d="m5.59822 493.78873l22.403526 25.007843l22.40353 -25.007843z" fill-rule="nonzero"></path><path stroke="#ffffff" stroke-width="2.0" stroke-linejoin="round" stroke-linecap="butt" d="m5.59822 493.78873l22.403526 25.007843l22.40353 -25.007843z" fill-rule="nonzero"></path><path fill="#ffffff" d="m5.59822 443.77298l22.403526 25.007874l22.40353 -25.007874z" fill-rule="nonzero"></path><path stroke="#ffffff" stroke-width="2.0" stroke-linejoin="round" stroke-linecap="butt" d="m5.59822 443.77298l22.403526 25.007874l22.40353 -25.007874z" fill-rule="nonzero"></path><path fill="#ffffff" d="m5.59822 418.76508l22.403526 25.007904l22.40353 -25.007904z" fill-rule="nonzero"></path><path stroke="#ffffff" stroke-width="2.0" stroke-linejoin="round" stroke-linecap="butt" d="m5.59822 418.76508l22.403526 25.007904l22.40353 -25.007904z" fill-rule="nonzero"></path><path fill="#ffffff" d="m5.59822 391.3386l22.403526 25.007874l22.40353 -25.007874z" fill-rule="nonzero"></path><path stroke="#ffffff" stroke-width="2.0" stroke-linejoin="round" stroke-linecap="butt" d="m5.59822 391.3386l22.403526 25.007874l22.40353 -25.007874z" fill-rule="nonzero"></path><path fill="#000000" fill-opacity="0.0" d="m51.165028 159.78871l-52.003277 -25.984253" fill-rule="nonzero"></path><path stroke="#ffffff" stroke-width="8.0" stroke-linejoin="round" stroke-linecap="butt" d="m51.165028 159.78871l-52.003277 -25.984253" fill-rule="nonzero"></path><path fill="#000000" fill-opacity="0.0" d="m56.807476 376.8596l-56.744312 -0.09448242" fill-rule="nonzero"></path><path stroke="#ffffff" stroke-width="8.0" stroke-linejoin="round" stroke-linecap="butt" d="m56.807476 376.8596l-56.744312 -0.09448242" fill-rule="nonzero"></path><path fill="#ffffff" d="m5.599205 685.6706l0 31.118103l44.807056 -31.118103z" fill-rule="nonzero"></path><path stroke="#ffffff" stroke-width="2.0" stroke-linejoin="round" stroke-linecap="butt" d="m5.599205 685.6706l0 31.118103l44.807056 -31.118103z" fill-rule="nonzero"></path><path fill="#ffffff" d="m5.5982165 654.5525l0 31.118103l44.807056 -31.118103z" fill-rule="nonzero"></path><path stroke="#ffffff" stroke-width="2.0" stroke-linejoin="round" stroke-linecap="butt" d="m5.5982165 654.5525l0 31.118103l44.807056 -31.118103z" fill-rule="nonzero"></path><path fill="#ffffff" d="m5.5982165 593.83594l0 31.118103l44.807056 -31.118103z" fill-rule="nonzero"></path><path stroke="#ffffff" stroke-width="2.0" stroke-linejoin="round" stroke-linecap="butt" d="m5.5982165 593.83594l0 31.118103l44.807056 -31.118103z" fill-rule="nonzero"></path><path fill="#ffffff" d="m5.5982165 624.9554l0 31.118103l44.807056 -31.118103z" fill-rule="nonzero"></path><path stroke="#ffffff" stroke-width="2.0" stroke-linejoin="round" stroke-linecap="butt" d="m5.5982165 624.9554l0 31.118103l44.807056 -31.118103z" fill-rule="nonzero"></path></g></svg>

